<?xml version="1.0" encoding="UTF-8"?>
<svg xmlns="http://www.w3.org/2000/svg" xmlns:xlink="http://www.w3.org/1999/xlink" width="40px" height="41px" viewBox="0 0 40 41" version="1.1">
<g id="surface1">
<path style=" stroke:none;fill-rule:nonzero;fill:rgb(25.882353%,52.156863%,95.686275%);fill-opacity:1;" d="M 39.980469 20.878906 C 39.980469 19.222656 39.84375 18.011719 39.550781 16.757812 L 20.398438 16.757812 L 20.398438 24.234375 L 31.636719 24.234375 C 31.414062 26.09375 30.191406 28.894531 27.46875 30.773438 L 27.429688 31.019531 L 33.488281 35.65625 L 33.90625 35.695312 C 37.757812 32.183594 39.980469 27.011719 39.980469 20.878906 "/>
<path style=" stroke:none;fill-rule:nonzero;fill:rgb(20.392157%,65.882353%,32.54902%);fill-opacity:1;" d="M 20.398438 40.578125 C 25.90625 40.578125 30.527344 38.785156 33.90625 35.695312 L 27.46875 30.773438 C 25.746094 31.957031 23.433594 32.789062 20.398438 32.789062 C 15.003906 32.789062 10.425781 29.273438 8.792969 24.414062 L 8.554688 24.433594 L 2.257812 29.25 L 2.179688 29.472656 C 5.53125 36.054688 12.421875 40.578125 20.398438 40.578125 "/>
<path style=" stroke:none;fill-rule:nonzero;fill:rgb(98.431373%,73.72549%,1.960784%);fill-opacity:1;" d="M 8.792969 24.414062 C 8.363281 23.160156 8.117188 21.820312 8.117188 20.429688 C 8.117188 19.042969 8.363281 17.699219 8.773438 16.445312 L 8.761719 16.179688 L 2.386719 11.289062 L 2.179688 11.386719 C 0.792969 14.117188 0.00390625 17.1875 0.00390625 20.429688 C 0.00390625 23.675781 0.792969 26.742188 2.179688 29.472656 L 8.792969 24.414062 "/>
<path style=" stroke:none;fill-rule:nonzero;fill:rgb(92.156863%,26.27451%,20.784314%);fill-opacity:1;" d="M 20.398438 8.074219 C 24.226562 8.074219 26.8125 9.710938 28.285156 11.074219 L 34.039062 5.523438 C 30.507812 2.277344 25.90625 0.285156 20.398438 0.285156 C 12.421875 0.285156 5.53125 4.808594 2.179688 11.386719 L 8.773438 16.445312 C 10.425781 11.589844 15.003906 8.074219 20.398438 8.074219 "/>
</g>
</svg>
